PathFileType	4	(X/Y/Z)	C:/Users/labor/Downloads/static_updated_hjc.trc	
DataRate	CameraRate	NumFrames	NumMarkers	Units	OrigDataRate	OrigDataStartFrame	OrigNumFrames	
200.00	200.00	5	69	mm	200.00	208	175	
Frame#	Time	FHD			LBHD			RBHD			RBAR			LBAR			RASI			RSACR			LSACR			LASI			USACR			C7			CLAV			T10			RSHO			LSHO			LTHI1			LTHI3			LTHI2			LTHI4			LLFC			LMFC			LTIB1			LTIB2			LTIB3			LTIB4			LMMAL			LLMAL			LHEE			LMT1			LMT5			LMT3			RTHI1			RTHI2			RTHI3			RTHI4			RLFC			RMFC			RTIB1			RTIB3			RTIB2			RTIB4			RLMAL			RMMAL			RHEE			RMT5			RMT1			RMT3			LMEP			LLEP			LDUPA			LMUPA			LUUPA			LUL			LRAD			LRFIN			RUL			RRAD			RUFIN			RMEP			RLEP			RMUPA			RDUPA			RUUPA			LAJC			RAJC			LKJC			RKJC			RHJC			LHJC			
		X1	Y1	Z1	X2	Y2	Z2	X3	Y3	Z3	X4	Y4	Z4	X5	Y5	Z5	X6	Y6	Z6	X7	Y7	Z7	X8	Y8	Z8	X9	Y9	Z9	X10	Y10	Z10	X11	Y11	Z11	X12	Y12	Z12	X13	Y13	Z13	X14	Y14	Z14	X15	Y15	Z15	X16	Y16	Z16	X17	Y17	Z17	X18	Y18	Z18	X19	Y19	Z19	X20	Y20	Z20	X21	Y21	Z21	X22	Y22	Z22	X23	Y23	Z23	X24	Y24	Z24	X25	Y25	Z25	X26	Y26	Z26	X27	Y27	Z27	X28	Y28	Z28	X29	Y29	Z29	X30	Y30	Z30	X31	Y31	Z31	X32	Y32	Z32	X33	Y33	Z33	X34	Y34	Z34	X35	Y35	Z35	X36	Y36	Z36	X37	Y37	Z37	X38	Y38	Z38	X39	Y39	Z39	X40	Y40	Z40	X41	Y41	Z41	X42	Y42	Z42	X43	Y43	Z43	X44	Y44	Z44	X45	Y45	Z45	X46	Y46	Z46	X47	Y47	Z47	X48	Y48	Z48	X49	Y49	Z49	X50	Y50	Z50	X51	Y51	Z51	X52	Y52	Z52	X53	Y53	Z53	X54	Y54	Z54	X55	Y55	Z55	X56	Y56	Z56	X57	Y57	Z57	X58	Y58	Z58	X59	Y59	Z59	X60	Y60	Z60	X61	Y61	Z61	X62	Y62	Z62	X63	Y63	Z63	X64	Y64	Z64	X65	Y65	Z65	X66	Y66	Z66	X67	Y67	Z67	X68	Y68	Z68	X69	Y69	Z69	

44	0.215	108.82802	931.09418	1724.74707	278.95526	852.15491	1698.68262	234.45219	1004.90405	1726.14233	2013.74658	2007.88672	28.06868	1903.42883	-212.60110	23.71162	158.85742	1062.50232	970.00378	348.49954	958.39325	976.96375	346.05453	916.12433	972.92322	153.84444	813.45514	974.53186	339.11472	933.24719	985.61957	319.41132	924.63177	1481.75708	163.83711	925.35596	1432.08521	333.60883	934.92883	1170.02454	299.68100	1086.28967	1468.18066	285.99316	764.14093	1461.74805	222.53612	732.48364	813.60419	189.83936	732.50439	790.94659	237.01364	724.10443	774.59418	191.73393	724.17175	726.56073	261.15695	742.96613	499.37595	236.19067	847.56744	469.74634	319.85510	730.87683	416.32211	296.10251	714.33899	377.94858	343.07495	727.96637	366.39673	309.07803	710.46051	313.27734	251.61278	822.57056	96.95642	282.04028	736.52747	76.62595	331.12216	786.11523	35.29547	111.37416	775.06653	41.06965	155.19708	703.86121	29.50932	128.86876	724.57501	33.66381	209.67960	1143.35034	817.46405	210.39461	1148.51782	784.70984	163.03809	1130.42139	781.85913	189.32281	1146.08911	721.93262	256.49310	1124.59680	500.70239	242.74675	1003.22461	482.88443	307.11487	1136.85498	432.98007	340.08218	1142.49170	382.79379	289.94183	1154.71960	385.61588	312.62280	1155.48279	323.72467	287.92886	1132.48474	82.84775	248.54782	1050.09900	100.39346	328.46674	1073.83301	33.16434	172.55812	1181.93933	28.86526	119.32926	1119.42542	46.03718	130.88605	1159.96936	35.00863	214.99767	501.70242	1296.19421	272.52609	489.72321	1395.39368	305.46542	564.13586	1389.27026	324.25848	622.99658	1381.97095	297.99896	635.61707	1422.61487	226.66528	232.90451	1364.94287	168.11729	247.73839	1342.45605	157.77158	153.51305	1352.68518	248.57779	1608.18970	1396.15125	198.33260	1593.05444	1400.51343	183.04909	1698.09314	1400.39014	234.44548	1358.09033	1299.46228	284.92667	1363.56323	1402.37244	322.13168	1267.21118	1400.99756	286.89026	1284.60254	1432.40466	315.72897	1210.29150	1426.11060	266.82653	779.54901	86.79119	268.23834	1091.29187	91.62061	248.67381	795.26678	484.56114	249.61993	1063.91071	491.79341	248.98607	997.87476	977.81168	246.47958	873.35117	980.07571 
45	0.220	108.96783	931.08704	1724.85876	279.07306	852.16052	1698.63269	234.58902	1004.91925	1726.13159	2013.73193	2007.91797	28.09282	1903.46033	-212.53720	23.67162	158.84814	1062.49683	970.00696	348.47318	958.38501	976.96893	346.04700	916.12079	972.93469	153.81305	813.43652	974.53729	339.09671	933.24078	985.61951	319.37564	924.60974	1481.78906	163.80724	925.34064	1432.08765	333.60291	934.91418	1170.02380	299.64096	1086.28711	1468.20264	285.96805	764.13403	1461.76147	222.50311	732.47211	813.60065	189.80341	732.49927	790.95587	237.00552	724.08093	774.58685	191.70450	724.22827	726.57068	261.14355	742.95557	499.38187	236.41264	847.31256	469.69510	319.84528	730.86395	416.33093	296.08859	714.33185	377.94006	343.06940	727.99237	366.34821	309.15002	710.51581	313.14758	251.79759	822.55145	97.14801	282.04037	736.51782	76.62915	331.11935	786.11298	35.28455	111.36270	775.06738	41.07527	155.20190	703.86761	29.51153	128.86067	724.57404	33.66617	209.66792	1143.34497	817.46466	210.40102	1148.51355	784.68762	163.02856	1130.43250	781.85614	189.31015	1146.08630	721.92529	256.48401	1124.58569	500.70682	242.73639	1003.21368	482.88815	307.10986	1136.85352	432.98099	340.08029	1142.47632	382.78925	289.97617	1154.42139	385.57031	312.62265	1155.47522	323.72839	287.93124	1132.47620	82.84558	248.67136	1050.13538	100.37066	328.46655	1073.81873	33.16105	172.58603	1181.93286	28.85896	119.31940	1119.41931	46.03229	130.95844	1159.90967	34.85443	214.96581	501.68295	1296.25208	272.51245	489.70987	1395.43018	305.48102	564.12134	1389.31018	324.23920	623.00085	1382.00427	297.98022	635.62024	1422.63220	226.66359	232.89345	1364.99902	168.10748	247.72762	1342.50232	157.79124	153.57576	1352.72876	248.56767	1608.19556	1396.21216	198.32060	1593.06628	1400.59326	183.05180	1698.10156	1400.49243	234.38141	1358.10229	1299.53125	285.04160	1363.63037	1402.56641	322.09219	1267.21338	1401.04114	286.85449	1284.60596	1432.44446	315.68765	1210.28381	1426.14648	266.91898	779.53464	86.88858	268.30130	1091.30579	91.60812	248.77810	795.13406	484.53848	249.61020	1063.89969	491.79749	248.97243	997.86880	977.81323	246.45488	873.33865	980.07840 
46	0.225	109.08898	931.07092	1724.97278	279.18427	852.16388	1698.58081	234.71509	1004.90851	1726.12122	2013.76477	2007.85876	28.07151	1903.36646	-212.65407	23.72034	158.82750	1062.49292	970.00031	348.44324	958.38617	976.97144	346.02243	916.10681	972.93372	153.78102	813.43707	974.53424	339.05643	933.23358	985.61731	319.36563	924.60321	1481.78760	163.78850	925.33081	1432.09119	333.58652	934.92285	1170.03210	299.58951	1086.28162	1468.21716	285.94336	764.13446	1461.76941	222.46893	732.45697	813.60474	189.77151	732.48352	790.95062	236.96651	724.10272	774.58197	191.66490	724.15765	726.55994	261.12509	742.96478	499.37244	236.16064	847.54956	469.74411	319.82553	730.83942	416.33011	296.08069	714.33691	377.94623	343.04947	727.95459	366.37698	309.12756	710.61182	313.12433	251.81743	822.55103	97.16697	282.03381	736.53070	76.63100	331.12134	786.12598	35.29659	111.36334	775.05872	41.07475	155.19962	703.85718	29.51111	128.86305	724.58276	33.66178	209.65898	1143.34131	817.47211	210.27896	1148.81287	784.93848	163.01424	1130.43188	781.85400	189.28896	1146.08044	721.92401	256.47849	1124.57703	500.71719	242.72862	1003.19757	482.88605	307.09933	1136.83569	432.98682	340.12958	1142.48669	382.77652	289.97556	1154.39905	385.56470	312.61804	1155.48083	323.73111	287.93448	1132.47241	82.85468	248.66316	1050.13147	100.36435	328.46912	1073.82483	33.16199	172.56577	1181.94568	28.86990	119.32776	1119.42065	46.02097	130.89554	1159.95117	34.98380	214.98164	501.66351	1296.26819	272.50174	489.69742	1395.46533	305.45203	564.12048	1389.35352	324.21832	622.98889	1382.02869	297.96210	635.62396	1422.65198	226.64706	232.87502	1365.05603	168.10736	247.70834	1342.54785	157.77687	153.51424	1352.80359	248.57181	1607.99548	1396.42578	198.30145	1593.07373	1400.67603	183.04933	1698.11316	1400.58972	234.31982	1358.11426	1299.58606	285.11334	1363.65100	1402.61511	322.05383	1267.20288	1401.07422	286.81934	1284.61035	1432.48999	315.65561	1210.28796	1426.18579	266.92562	779.54086	86.89898	268.29882	1091.30194	91.60951	248.64287	795.25717	484.55827	249.60355	1063.88730	491.80162	248.94196	997.86325	977.80881	246.41872	873.33533	980.07578 
47	0.230	109.24211	931.07953	1725.07898	279.31497	852.17041	1698.53442	234.84695	1004.91113	1726.10876	2013.78003	2007.85632	28.06726	1903.39258	-212.60469	23.71237	158.80585	1062.47607	970.00159	348.41763	958.37970	976.97552	345.99210	916.09619	972.94183	153.75328	813.43585	974.51984	339.03824	933.21393	985.62091	319.33997	924.60913	1481.78870	163.76797	925.31470	1432.09155	333.56979	934.91321	1170.03931	299.55734	1086.27661	1468.23010	285.91998	764.13525	1461.77747	222.44702	732.44794	813.60553	189.74037	732.48071	790.96381	236.93810	724.08356	774.58380	191.63737	724.15527	726.55890	261.10492	742.95087	499.38300	236.38179	847.30157	469.69843	319.80939	730.83936	416.34467	296.06516	714.34674	377.93481	343.02020	727.93073	366.38812	309.14410	710.71326	313.08984	251.80731	822.57813	97.18071	282.03265	736.53180	76.62724	331.11331	786.11694	35.29729	111.36417	775.05939	41.06957	155.19295	703.85870	29.50720	128.85878	724.57446	33.66739	209.64566	1143.34583	817.47357	210.36900	1148.50854	784.71191	163.00803	1130.42920	781.85394	189.29056	1146.09937	721.93396	256.47217	1124.56763	500.70496	242.71187	1003.19617	482.88898	307.09506	1136.83423	432.99255	340.07544	1142.49622	382.83023	289.95532	1154.39014	385.56882	312.62595	1155.45361	323.73273	287.93976	1132.46606	82.85961	248.64886	1050.14526	100.37672	328.46683	1073.81384	33.15617	172.57336	1181.93481	28.87350	119.32861	1119.41809	46.03023	130.90115	1159.95020	34.97998	214.95703	501.64539	1296.29749	272.54898	489.67462	1395.60254	305.43604	564.11475	1389.38074	324.20016	622.98828	1382.04956	297.94772	635.61896	1422.67078	226.63759	232.86852	1365.10681	168.09792	247.69835	1342.59045	157.68280	153.38579	1352.92578	248.55223	1608.01208	1396.49609	198.28020	1593.08740	1400.74158	183.05768	1698.12793	1400.67114	234.23788	1358.12524	1299.67554	285.11389	1363.70044	1402.74329	321.99405	1267.21326	1401.11194	286.78052	1284.60730	1432.53503	315.61038	1210.29517	1426.22021	266.91998	779.55496	86.90397	268.29431	1091.30566	91.61817	248.74335	795.12622	484.54071	249.59202	1063.88190	491.79697	248.92204	997.84500	977.81125	246.39576	873.32489	980.07037 
48	0.235	109.38570	931.03973	1725.18506	279.42487	852.18030	1698.48682	234.99300	1004.90686	1726.09656	2013.78381	2007.87683	28.07096	1903.45789	-212.51013	23.61403	158.78093	1062.47778	969.99695	348.40131	958.35089	976.97943	345.96045	916.08453	972.94617	153.71466	813.42419	974.51898	339.00348	933.21112	985.61951	319.06168	924.61749	1481.71460	163.73389	925.30298	1432.09509	333.54730	934.91754	1170.03333	299.52133	1086.27490	1468.24036	285.89130	764.13654	1461.78589	222.41368	732.43903	813.59698	189.72614	732.48511	790.95422	236.91141	724.07141	774.59430	191.62080	724.14264	726.55035	261.09436	742.95135	499.37943	236.13181	847.55292	469.74680	319.80289	730.85120	416.33759	296.06448	714.34637	377.93927	343.02155	727.87427	366.43408	309.14807	710.77704	313.07059	251.73174	822.41614	97.04306	282.03152	736.53619	76.63291	331.11264	786.11749	35.28895	111.36150	775.06232	41.07354	155.19997	703.85162	29.51514	128.86409	724.57452	33.67300	209.63208	1143.34656	817.47687	210.35876	1148.52014	784.70331	162.98244	1130.43005	781.85864	189.25919	1146.10022	721.93298	256.47415	1124.56250	500.71762	242.70390	1003.18738	482.89523	307.08521	1136.81592	432.98816	340.07260	1142.46289	382.81189	289.96725	1154.37073	385.57028	312.62842	1155.44629	323.74744	287.93329	1132.46533	82.85705	248.68396	1050.11206	100.35494	328.46643	1073.82117	33.16412	172.57201	1181.93579	28.88273	119.32177	1119.41846	46.02074	130.89926	1159.95056	34.98343	214.95801	501.63437	1296.30566	272.53922	489.65784	1395.64148	305.41666	564.11157	1389.42102	324.17883	622.98535	1382.06885	297.92648	635.61969	1422.69739	226.63321	232.86168	1365.15906	168.09187	247.68806	1342.64783	157.70595	153.42712	1352.97974	248.52592	1608.02991	1396.55334	198.25865	1593.10339	1400.82446	183.05664	1698.14038	1400.77417	234.18750	1358.15088	1299.70703	285.05951	1363.69995	1402.79053	321.94507	1267.20764	1401.13318	286.73401	1284.60474	1432.57056	315.56497	1210.29321	1426.23901	266.88163	779.47617	86.83799	268.30862	1091.28870	91.60600	248.61308	795.25214	484.56311	249.58903	1063.87494	491.80643	248.89220	997.84445	977.80823	246.35907	873.31766	980.06924 
